<?xml version="1.0" encoding="UTF-8" standalone="no"?>
<!-- Copyright 2017 mathsisfun.com -->
<svg xmlns="http://www.w3.org/2000/svg" width="182.8" height="130.1" version="1.1">
<defs>
<marker style="overflow:visible;" orient="auto" id="id02">
<path d="M 0,0 5,-5 -12.5,0 5,5 Z" transform="matrix(0.4,0,0,0.4,4,0)" style="fill:#999999; stroke:#999999; stroke-width:1pt;"/>
</marker>
<marker style="overflow:visible;" orient="auto" id="id01">
<path d="M 0,0 5,-5 -12.5,0 5,5 Z" transform="matrix(0.4,0,0,0.4,4,0)" style="fill:#daa527; stroke:#daa527; stroke-width:1pt;"/>
</marker>
</defs>
<g transform="translate(-150.21,-131.758)">
<path d="m 181.3,138.4 44.9,7.3" style="marker-start:url(#id01); fill:none; stroke:#daa527; stroke-width:2;"/>
<text x="272.9" y="158.7" transform="scale(1.02813,0.97264)" style="font-family:'Comic Sans MS'; text-align:center; text-anchor:middle; font-size:20.5px; font-style:italic; fill:#daa527; stroke-width:2;">Remember</text>
<text x="260.7" y="261.1" transform="scale(1.01953,0.980845)" style="font-family:'Comic Sans MS'; text-align:center; text-anchor:middle; font-size:20.5px; font-style:italic; fill:#999999; stroke-width:2;">Clear space</text>
<text x="167.5" y="145.3" style="font-family:'Comic Sans MS'; font-size:17.8px; color:black; overflow:visible; fill:#daa737; stroke-width:0.84px;">1</text>
<text x="171.4" y="164.8" style="font-family:'Comic Sans MS'; font-size:24px; color:black; overflow:visible; fill:#3b5fff; stroke-width:1px;">1</text>
<text x="184.5" y="164.4" style="font-family:'Comic Sans MS'; font-size:24px; color:black; overflow:visible; fill:#3b5fff; stroke-width:1px;">6</text>
<text x="153.3" y="189.4" style="font-family:'Comic Sans MS'; font-size:21.3px; color:black; overflow:visible; fill:#3b5fff; stroke-width:1px;">+</text>
<text x="184.5" y="218.5" style="font-family:'Comic Sans MS'; font-size:24px; color:black; overflow:visible; fill:#daa737; stroke-width:1px;">2</text>
<path d="m 150.2,196.9 h 53" style="fill:none; stroke:black; stroke-width:1.6;"/>
<path d="m 150.2,222.4 h 53" style="fill:none; stroke:black; stroke-width:1.6;"/>
<text x="171.4" y="190.3" style="font-family:'Comic Sans MS'; font-size:24px; color:black; overflow:visible; fill:#3b5fff; stroke-width:1px;">1</text>
<text x="184.5" y="189.9" style="font-family:'Comic Sans MS'; font-size:24px; color:black; overflow:visible; fill:#3b5fff; stroke-width:1px;">6</text>
<path d="m 175.1,220.7 30.5,28.4" style="marker-start:url(#id02); fill:#999999; stroke:#999999; stroke-width:2;"/>
</g>
</svg>
